<?xml version="1.0" encoding="utf-8"?>
<!-- Generator: Adobe Illustrator 16.0.4, SVG Export Plug-In . SVG Version: 6.00 Build 0)  -->
<!DOCTYPE svg PUBLIC "-//W3C//DTD SVG 1.1//EN" "http://www.w3.org/Graphics/SVG/1.1/DTD/svg11.dtd">
<svg version="1.1" id="Layer_1" xmlns="http://www.w3.org/2000/svg" xmlns:xlink="http://www.w3.org/1999/xlink" x="0px" y="0px"
	 width="84.772px" height="118.095px" viewBox="0 0 84.772 118.095" enable-background="new 0 0 84.772 118.095"
	 xml:space="preserve">
<g>
	<path fill="#008983" d="M84.75,78.692c0.184-7.527-1.103-14.962-3.946-22.766c-0.346-0.964-0.689-1.858-1.056-2.73
		c-2.318-5.691-5.371-11.382-9.639-17.946c-2.823-4.337-5.258-7.895-7.62-11.201c-1.721-2.385-3.604-4.68-5.438-6.884l-0.573-0.688
		c-1.493-1.79-3.03-3.58-4.5-5.301l-0.021-0.023c-0.62-0.735-1.239-1.446-1.859-2.18c-0.71-0.826-1.399-1.653-2.111-2.457
		L47.733,6.22c-0.896-1.033-1.79-2.089-2.686-3.123L42.386,0l-2.64,3.098c-0.985,1.148-1.974,2.296-2.96,3.466l-2.087,2.433
		c-0.62,0.734-1.264,1.468-1.884,2.202c-1.49,1.722-3.028,3.512-4.52,5.302l-0.575,0.688c-1.835,2.203-3.717,4.476-5.438,6.884
		c-2.363,3.306-4.796,6.863-7.619,11.2c-4.269,6.541-7.345,12.255-9.639,17.945c-0.344,0.872-0.688,1.744-1.058,2.731
		c-2.844,7.803-4.13,15.261-3.946,22.766c-0.16,5.484,0.553,10.235,2.181,14.526c2.846,7.481,7.94,13.678,15.123,18.382
		c6.195,4.062,15.56,6.472,25.038,6.472c9.501,0,18.865-2.432,25.036-6.472c7.185-4.704,12.279-10.901,15.125-18.382
		C84.198,88.951,84.911,84.177,84.75,78.692 M79.128,91.911c-2.571,6.748-7.185,12.348-13.701,16.615
		c-5.622,3.671-14.229,5.874-23.041,5.874s-17.419-2.203-23.039-5.874c-6.519-4.268-11.132-9.868-13.701-16.615
		c-1.471-3.833-2.111-8.146-1.952-13.149v-0.046V78.67c-0.182-7.069,1.033-14.092,3.718-21.48c0.344-0.943,0.667-1.79,0.988-2.594
		c2.226-5.46,5.187-10.97,9.316-17.304C20.517,33,22.902,29.49,25.243,26.23c1.651-2.294,3.488-4.521,5.278-6.678l0.573-0.688
		c1.471-1.767,2.984-3.535,4.475-5.257c0.644-0.733,1.264-1.467,1.884-2.203l2.087-2.431c0.942-1.103,1.882-2.203,2.823-3.283
		c0.849,0.987,1.696,1.974,2.547,2.96l0.254,0.299c0.71,0.827,1.399,1.629,2.109,2.455c0.62,0.736,1.24,1.446,1.884,2.181
		l0.022,0.022c1.468,1.7,3.004,3.466,4.45,5.233l0.575,0.688c1.79,2.157,3.625,4.383,5.276,6.68
		c2.343,3.258,4.729,6.769,7.528,11.061c4.131,6.356,7.092,11.842,9.317,17.303c0.344,0.827,0.667,1.674,0.986,2.593
		c2.686,7.389,3.901,14.412,3.718,21.48v0.046v0.047C81.215,83.787,80.597,88.078,79.128,91.911"/>
	<path fill="#5BC2A9" d="M47.298,11.383c-0.712-0.826-1.401-1.63-2.111-2.457l-0.254-0.297c-0.849-0.987-1.696-1.974-2.547-2.96
		c-0.939,1.101-1.882,2.204-2.823,3.281l-2.087,2.434c-0.62,0.734-1.263,1.469-1.882,2.203c-1.492,1.721-3.008,3.488-4.475,5.254
		l-0.575,0.689c-1.79,2.157-3.625,4.384-5.278,6.678c-2.341,3.258-4.728,6.771-7.526,11.061c-4.133,6.357-7.093,11.842-9.317,17.303
		c-0.346,0.827-0.667,1.676-0.986,2.593C4.75,64.556,3.532,71.578,3.718,78.647v0.044v0.047c-0.162,5.003,0.481,9.317,1.95,13.15
		c2.569,6.746,7.182,12.346,13.699,16.616c5.624,3.671,14.229,5.875,23.043,5.875c8.812,0,17.419-2.203,23.039-5.875
		c6.518-4.27,11.132-9.87,13.701-16.616c1.468-3.833,2.111-8.146,1.95-13.15v-0.047v-0.044c0.184-7.069-1.033-14.091-3.718-21.481
		c-0.346-0.917-0.665-1.767-0.986-2.593c-2.226-5.461-5.187-10.969-9.317-17.303c-2.8-4.291-5.186-7.803-7.526-11.061
		c-1.653-2.294-3.488-4.521-5.278-6.678l-0.573-0.689c-1.471-1.767-2.984-3.533-4.453-5.231l-0.023-0.023
		C48.537,12.852,47.918,12.117,47.298,11.383"/>
</g>
</svg>
