<?xml version="1.0" encoding="utf-8"?>
<!-- Generator: Adobe Illustrator 16.0.4, SVG Export Plug-In . SVG Version: 6.00 Build 0)  -->
<!DOCTYPE svg PUBLIC "-//W3C//DTD SVG 1.1//EN" "http://www.w3.org/Graphics/SVG/1.1/DTD/svg11.dtd">
<svg version="1.1" id="Layer_1" xmlns="http://www.w3.org/2000/svg" xmlns:xlink="http://www.w3.org/1999/xlink" x="0px" y="0px"
	 width="557.708px" height="580.758px" viewBox="0 0 557.708 580.758" enable-background="new 0 0 557.708 580.758"
	 xml:space="preserve">
<path fill="#C6B4AD" d="M152.03,100.752c0.654,6.188-1.241,12.263-5.2,16.665c-3.229,3.587-7.395,5.564-11.729,5.564
	c-3.389,0-6.765-1.25-9.765-3.613c-4.064-3.205-8.11-13.353-12.021-23.166c-1.163-2.924-2.549-6.398-3.809-9.213
	c0.744,4.423,1,9.048-1.516,12.873c-1.651,2.509-3.777,3.784-6.319,3.784c-2.661,0-5.268-1.375-7.79-2.708
	c11.526,20.442,29.582,27.692,54.526,32.444c26.598,5.069,40.12,20.324,43.842,49.465c0.514,4,0.873,8.169,1.106,12.744l0.069,1.367
	l-1.328,0.324c-3.65,0.888-7.332,2.017-10.895,3.106c-1.483,0.454-2.965,0.909-4.449,1.347c-10.006,2.959-21.683,6.268-33.642,8.085
	c-4.901,0.746-8.79,1.093-12.236,1.093c-11.265,0-19.002-3.784-24.353-11.905c-0.629-0.95-2.071-3.286-4.07-6.519
	c-5.859-9.478-21.605-34.953-29.232-44.463l4.885,14.227l-1.678,0.476c-2.074,0.587-4.707,0.871-8.051,0.871
	c-5.67,0-12.609-0.845-19.357-1.942c20.043,6.59,38.268,15.375,51.22,35.773l2.388,3.761l-4.262-1.293
	c-12.008-3.642-24.83-3.669-37.232-3.696c-7.95-0.019-16.064-0.036-24.086-0.992c2.796,0.55,5.645,0.866,8.55,1.19
	c3.878,0.429,7.886,0.875,12.071,1.88l3.23,0.777l-2.567,2.107c-11.809,9.705-23.491,12.895-36.485,15.336
	c11.262-0.56,21.798-4.645,32.908-8.949l1.012-0.392c6.598-2.553,12.721-3.795,18.719-3.795c9.855,0,18.679,3.342,28.895,7.213
	c2.068,0.784,4.209,1.596,6.445,2.414c7.899,2.888,16.376,4.291,25.914,4.291c11.497,0,23.287-2.05,34.69-4.031
	c4.324-0.752,8.796-1.529,13.206-2.189c3.388-0.507,6.83-0.765,10.234-0.765c14.857,0,27.961,4.779,41.83,9.835
	c2.334,0.851,4.693,1.71,7.092,2.559c17.854,6.318,31.957,11.307,44.221,27.6c6.76,8.983,12.301,19.04,16.021,29.08
	c3.604,9.736,1.766,20.406-4.801,27.849c-3.617,4.097-10.969,6.851-18.292,6.851c-5.457,0-10.141-1.53-13.182-4.309
	c-7.9-7.217-5.303-18.366-2.788-29.148c1.757-7.539,3.433-14.729,1.7-20.343c-2.695,6.643-6.391,15.737-13.286,15.737
	c-1.942,0-3.96-0.764-5.998-2.27c-3.786-2.8-7.446-5.789-10.987-8.678c-2.82-2.299-5.678-4.631-8.63-6.891
	c14.036,14.321,26.918,30.854,34.767,52.013l0.774,2.093l-2.228,0.132c-23.717,1.409-42.347-12.801-60.307-26.503
	c-4.406-3.364-8.57-6.542-12.83-9.518c-15.648-10.92-34.635-12.426-52.82-12.426c-4.591,0-9.23,0.105-13.717,0.208
	c-1.478,0.032-2.975,0.068-4.471,0.097c4.412,1.599,8.988,3.053,13.65,4.114c1.323,0.301,2.865,0.448,4.498,0.604
	c3.897,0.374,8.317,0.797,11.193,3.605c0.816,0.798,1.115,1.828,0.824,2.825c-0.379,1.284-1.266,4.292-23.033,8.714l-0.188,0.038
	c-33.461,6.813-72.746,13.845-112.178,14.902c9.244,6.248,19.817,9.295,32.169,9.295c19.3,0,40.528-7.49,61.058-14.734
	c20.232-7.139,41.152-14.521,59.97-14.521c18.421,0,32.968,7.069,44.474,21.614l2.009,2.539l-3.235,0.138
	c-9.365,0.398-20.355,6.119-30.985,11.652c-8.396,4.37-17.009,8.854-25.176,10.951c1.051,0.142,2.122,0.213,3.22,0.213
	c8.668,0,17.677-4.565,26.391-8.979c9.074-4.599,18.46-9.353,27.949-9.353c1.178,0,2.353,0.074,3.49,0.22
	c4.422,0.568,8.257,3.03,11.965,5.409c1.993,1.278,3.875,2.487,5.791,3.377c6.657,3.093,14.08,5.443,22.065,6.987
	c6.27,1.214,12.304,1.392,18.694,1.577c3.202,0.096,6.512,0.192,9.826,0.433c7.293,0.528,12.547,3.041,15.617,7.468
	c5.521,7.961,2.771,20.403,0.225,29.069c-6.351,21.607-11.963,43.335-16.684,64.579c-3.367,15.162-8.303,32.644-13.527,51.151
	c-9.799,34.713-19.926,70.582-22.307,99.295h84.002c-0.594-16.488-4.506-32.246-8.638-48.898
	c-6.91-27.845-14.742-59.403-11.019-105.792c1.703-21.192,7.654-40.451,13.411-59.076c5.399-17.473,10.984-35.544,12.978-55.075
	c1.149-11.259,4.812-18.849,11.528-23.886c10.007-7.505,16.462-8.507,27.842-8.891c23.244-0.783,42.396-2.41,60.271-5.117
	c41.434-6.277,78.622-19.784,110.605-40.16c-2.198-0.3-4.44-0.453-6.7-0.453c-17.494,0-34.177,8.709-50.311,17.131
	c-2.462,1.286-4.893,2.555-7.288,3.77c-16.131,8.188-35.269,16.559-54.898,16.559c-7.822,0-15.449-1.335-22.671-3.968l-3.369-1.23
	l3.123-1.764c27.429-15.481,54.908-37.429,77.378-61.798c4.957-5.38,16.342-6.231,29.524-7.218
	c19.97-1.497,42.463-3.179,44.741-21.571c-18.927,11.985-34.302,15.046-58.577,16.852l-3.935,0.292l2.551-3.009
	c0.559-0.66,1.498-1.748,2.731-3.175c28.367-32.844,38.315-47.016,41.547-53.121c-7.935,8.506-15.598,16.458-26.476,21.515
	c-2.547,1.185-4.912,1.786-7.026,1.787c-11.08,0.001-12.912-15.181-14.252-26.265c-0.075-0.637-0.151-1.258-0.226-1.864
	c-1.96,6.492-0.022,23.398,0.981,26.339c5.664,16.615,3.229,27.962-8.688,40.47c-12.732,13.366-29.196,26.436-51.811,41.128
	c-16.685,10.84-38.933,24.464-63.106,33.682c-9.75,3.717-17.772,6.193-25.236,6.193c-10.052,0-17.444-4.669-22.604-14.275
	c-9.054-16.864-20.174-41.922-12.265-64.735c5.003-14.424,16.87-25.901,37.348-36.125c17.535-8.754,36.455-14.938,54.752-20.918
	c23.144-7.565,47.074-15.385,68.185-28.455c-2.136,0.651-4.18,1.298-6.195,1.935c-9.784,3.096-18.232,5.772-31.315,7.108
	l-5.498,0.563l4.287-3.489c3.285-2.673,6.383-5.118,9.32-7.437c11.881-9.376,21.093-16.646,29.662-28.778
	c-8.552,6.434-18.695,11.752-28.59,16.941c-4.778,2.506-9.29,4.871-13.485,7.294c-0.66,0.382-2.196,1.383-4.142,2.651
	c-15.207,9.915-31.749,20.05-39.125,20.05c-1.391,0-2.512-0.35-3.328-1.043l-1.383-1.175l1.299-1.27
	c14.024-13.692,25.304-30.374,36.211-46.509l3.75-5.538c4.322-6.366,8.765-12.913,13.393-19.275
	c-1.932,1.821-3.721,3.528-5.084,4.831c-1.285,1.226-2.262,2.157-2.74,2.596c-1.803,1.651-3.528,3.456-5.355,5.362
	c-4.885,5.104-9.936,10.381-16.692,12.811l-2.705,0.973l0.52-2.828c1.919-10.427,3.18-20.401,4.4-30.048
	c0.668-5.294,1.351-10.688,2.146-16.207c-3.276,9.251-5.684,18.82-8.036,28.174c-5.758,22.895-11.713,46.569-30.351,64.751
	c-9.717,9.482-21.167,17.199-32.236,24.663c-16.896,11.388-34.366,23.165-45.392,41.238l-1.719,2.818l-1.227-3.066
	c-10.86-27.174,0.881-59.067,10.317-84.695l0.865-2.352c2.036-5.541,4.227-11.064,6.543-16.913
	c8.684-21.911,17.636-44.498,17.989-67.123c-3.138,7.823-4.797,15.389-6.534,23.296c-2.246,10.227-4.569,20.802-10.231,33.397
	l-1.982,4.408l-1.132-4.697c-3.409-14.135-9.378-24.857-15.699-36.209c-1.44-2.586-2.905-5.218-4.37-7.943
	c1.152,6.134,3.282,11.919,5.495,17.934c2.465,6.696,5.014,13.622,6.146,21.192l0.731,4.888l-3.525-3.467
	c-24.067-23.658-32.703-34.867-41.435-61.209c-2.572,1.146-4.095,2.834-4.636,5.131c-2.316,9.868,11.923,29.843,42.328,59.373
	c1.048,1.018,1.896,1.841,2.496,2.438c13.125,13.074,3.561,32.534-3.422,46.744c-0.734,1.493-1.443,2.934-2.099,4.314
	c-13.172,27.705-15.22,57.428-6.638,96.374l0.561,2.541l-2.538-0.572c-13.659-3.076-26.864-8.005-41.474-13.657l-1.318-0.509
	c-12.48-4.813-28.011-10.805-34.83-23.67c-3.605-6.801-0.383-15.502,3.33-19.167c8.298-8.192,13.785-14.187,20.76-24.219
	c10.771-15.496,25.076-36.071,29.912-56.87c-1.74,3.073-3.324,6.251-4.877,9.37c-5.221,10.482-10.617,21.323-21.799,27.854
	l-2.271,1.327l-0.209-2.623c-1.109-13.881-2.32-27.693-3.603-41.052c-0.101-1.056-0.14-2.479-0.185-4.127
	c-0.098-3.555-0.283-10.276-1.693-13.239c-1.155,3.334-2.93,10.5-3.111,11.92c-0.926,7.255-0.652,16.951-0.411,25.507
	c0.077,2.721,0.151,5.325,0.183,7.704l0.069,5.391l-3.08-4.425c-17.856-25.657-21.688-45.986-25.742-67.508
	c-0.618-3.276-1.243-6.597-1.926-9.984c-0.749,0.486-1.333,1.215-1.786,2.22c-5.789,12.767,13.999,59.282,19.354,68.753
	c1.577,2.79,3.447,5.511,5.256,8.141c5.27,7.662,10.246,14.898,6.988,22.384c-5.619,12.914-9.883,19.979-20.286,27.714l-1.846,1.374
	l-0.711-2.187c-3.649-11.201-9.653-17.318-15.46-23.235c-3.372-3.437-6.557-6.683-9.033-10.709
	c-7.727-12.559-9.966-20.119-12.342-33.356c-1.088-6.071-1.699-11.79-2.293-17.323c-1.154-10.789-2.19-20.466-6.353-30.43
	c1.497,11.541,0.442,21.876-1.042,31.458l-0.521,3.369l-2.321-2.494c-3.677-3.953-9.212-6.091-14.862-7.648
	C142.964,79.541,150.973,90.764,152.03,100.752"/>
<path fill="#A29389" d="M509.72,194.883c21.38-1.601,47.988-3.592,47.988-28.036v-3.087l-2.569,1.712
	c-18.673,12.447-32.794,15.857-55.756,17.784c0.034-0.04,0.069-0.081,0.104-0.121c45.005-52.106,45.67-59.196,42.761-61.753
	l-1.2-1.053l-1.095,1.162c-0.942,1.003-1.879,2.006-2.811,3.009c-8.082,8.675-15.717,16.87-26.479,21.873
	c-2.108,0.98-4.004,1.476-5.636,1.478c-8.146,0.001-9.776-13.5-10.968-23.356c-0.239-1.99-0.465-3.858-0.725-5.489l-0.244-1.538
	l-1.55,0.153c-0.86,0.084-2.097,0.509-3.094,2.058c-3.95,6.13-1.144,27.532-0.044,30.754c5.267,15.45,3.112,25.512-7.95,37.123
	c-12.552,13.173-28.827,26.088-51.22,40.639c-16.545,10.749-38.602,24.256-62.483,33.363c-9.407,3.588-17.099,5.977-24.058,5.977
	c-8.841,0-15.099-3.983-19.691-12.536c-8.76-16.314-19.538-40.5-12.053-62.087c4.7-13.553,16.045-24.436,35.699-34.25
	c17.318-8.645,36.119-14.791,54.303-20.732c23.41-7.652,47.618-15.564,69.119-28.926c3.001-1.864,5.862-3.799,8.509-5.749
	l6.879-5.075l-8.275,2.145c-6.217,1.609-11.325,3.228-16.267,4.792c-8.089,2.56-15.251,4.828-24.916,6.257
	c1.632-1.299,3.217-2.55,4.757-3.765c14.967-11.812,25.781-20.346,36.451-39.189l6.338-11.194l-8.962,9.229
	c-9.384,9.659-23.087,16.845-36.339,23.795c-4.809,2.521-9.35,4.902-13.603,7.361c-0.738,0.424-2.229,1.396-4.294,2.743
	c-7.785,5.075-27.835,18.146-36.135,19.414c13.205-13.459,23.946-29.347,34.352-44.738l3.748-5.534
	c5.242-7.724,10.663-15.709,16.356-23.28c0.134-0.178,0.401-0.489,0.787-0.938c1.269-1.483,3.629-4.241,6.707-8.457l5.063-6.934
	l-7.276,4.559c-3.546,2.224-13.178,11.417-18.349,16.358c-1.262,1.204-2.219,2.119-2.69,2.551c-1.882,1.726-3.726,3.651-5.51,5.516
	c-3.899,4.072-7.912,8.265-12.692,10.775c1.636-9.408,2.775-18.422,3.881-27.169c1.221-9.645,2.481-19.621,4.4-30.049l2.192-11.915
	l-5.305,10.891c-6.503,13.355-10.142,27.825-13.662,41.817c-5.906,23.483-11.485,45.662-29.452,63.193
	c-9.505,9.271-20.828,16.905-31.777,24.285c-16.3,10.989-33.126,22.331-44.545,39.412c-8.363-25.353,2.601-55.123,11.477-79.23
	l0.865-2.354c2.022-5.502,4.203-11.006,6.514-16.835c9.731-24.558,19.796-49.949,18.03-75.701L326.916,0l-2.711,5.354
	c-5.362,10.58-7.496,20.294-9.758,30.583c-1.939,8.843-3.941,17.952-8.148,28.371C302.694,52,297.25,42.222,291.523,31.935
	c-2.743-4.927-5.579-10.021-8.312-15.573l-3.243-6.59l0.107,7.344c0.146,10.077,3.418,18.964,6.582,27.56
	c1.82,4.95,3.689,10.028,4.96,15.342c-21.216-21.177-29.104-32.349-37.336-57.745l-0.508-1.565l-1.566,0.5
	c-4.647,1.484-7.468,4.212-8.384,8.103c-3.516,14.965,22.995,42.837,43.242,62.502c1.034,1.005,1.872,1.818,2.465,2.409
	c11.446,11.402,2.851,28.891-4.055,42.944c-0.741,1.504-1.456,2.96-2.118,4.352c-13.034,27.415-15.411,57.959-7.432,95.944
	c-12.559-3.049-24.903-7.67-38.478-12.921l-1.32-0.511c-11.969-4.617-26.859-10.361-33.102-22.133
	c-2.814-5.314-0.172-12.402,2.733-15.27c8.441-8.333,14.028-14.438,21.15-24.682c12.348-17.763,29.261-42.09,31.847-66.355
	l0.652-6.103l-3.629,4.951c-3.803,5.192-6.704,11.015-9.508,16.646c-4.836,9.712-9.424,18.929-18.246,25.032
	c-1.049-12.977-2.186-25.87-3.386-38.369c-0.091-0.943-0.128-2.315-0.172-3.902c-0.229-8.314-0.726-15.359-4.517-17.379l-0.431-0.21
	h-0.411c-1.508,0-2.275,1.084-4.124,7.875c-0.925,3.388-1.782,7.118-1.905,8.066c-0.957,7.511-0.68,17.344-0.436,26.018
	c0.018,0.68,0.038,1.354,0.056,2.019c-14.793-22.924-18.337-41.728-22.075-61.562c-0.736-3.909-1.483-7.878-2.326-11.951
	l-0.336-1.622l-1.619,0.339c-2.566,0.532-4.533,2.164-5.689,4.718c-7.127,15.719,17.045,67.423,19.488,71.745
	c1.646,2.916,3.56,5.698,5.41,8.387c4.939,7.184,9.205,13.387,6.68,19.19c-5.036,11.572-8.91,18.22-17.436,25.003
	c-3.945-10.583-10.05-16.805-15.475-22.332c-3.238-3.301-6.299-6.419-8.579-10.127c-7.337-11.931-9.498-18.811-11.903-32.209
	c-1.069-5.953-1.674-11.615-2.259-17.089c-1.513-14.13-2.942-27.479-12.08-41.815l-5.774-9.055l2.784,10.372
	c3.847,14.344,3.177,26.876,1.577,38.298c-5.686-4.512-13.469-6.34-20.443-7.976l-0.83-0.197l-9.287-5.686l3.931,4.423l-2.548-0.601
	l6.117,4.62l0.195,0.22l0.162,0.055c17.475,13.231,27.283,25.581,28.355,35.718c0.556,5.26-1.035,10.4-4.371,14.106
	c-2.592,2.881-5.885,4.47-9.27,4.47c-2.677,0-5.273-0.978-7.718-2.905c-3.368-2.656-7.599-13.266-10.997-21.794
	c-4.953-12.428-6.783-16.444-9.502-16.444c-0.357,0-0.701,0.079-1.025,0.238l-1.081,0.528l0.172,1.192
	c0.173,1.211,0.431,2.507,0.695,3.849c0.933,4.709,1.991,10.046-0.416,13.703c-1.337,2.035-2.603,2.296-3.559,2.296
	c-1.845,0-4.09-1.186-6.26-2.333c-1.556-0.821-3.162-1.669-4.73-2.145l-3.597-1.091l1.627,3.388
	c11.971,24.942,31.48,33.211,59.08,38.472c25.305,4.823,37.621,18.771,41.181,46.635c0.449,3.519,0.782,7.175,1.011,11.139
	c-3.295,0.848-6.568,1.849-9.748,2.823c-1.471,0.451-2.943,0.902-4.418,1.337c-9.901,2.929-21.449,6.201-33.201,7.987
	c-4.733,0.719-8.465,1.055-11.74,1.055c-10.049,0-16.91-3.311-21.592-10.417c-0.611-0.925-2.043-3.248-4.018-6.44
	c-25.768-41.68-32.31-49.58-35.369-49.58c-0.292,0-0.573,0.056-0.834,0.165l-1.43,0.597l6.178,17.988
	c-1.502,0.248-3.322,0.374-5.434,0.374c-10.994,0-27.193-3.334-36.871-5.326c-4.931-1.015-7.148-1.462-8.104-1.462
	c-1.173,0-1.735,0.752-1.862,1.395c-0.295,1.506,1.084,2.068,2.829,2.772c2.577,0.771,5.134,1.521,7.665,2.263
	c25.332,7.424,47.387,13.891,62.968,35.64c-11.148-2.628-22.673-2.654-33.861-2.678c-12.97-0.03-26.379-0.06-38.831-4.237
	l-9.002-3.02l7.451,5.885c8.021,6.333,16.012,7.222,24.475,8.162c2.679,0.298,5.423,0.601,8.213,1.096
	c-12.245,9.015-24.264,11.113-39.204,13.722c-1.892,0.331-3.827,0.668-5.808,1.028L0,217.067l8.4,1.712
	c3.562,0.726,7.208,1.095,10.832,1.095c12.873,0,24.453-4.488,36.715-9.238l1.012-0.391c6.211-2.404,11.942-3.572,17.526-3.572
	c9.248,0,17.401,3.088,27.724,6.998c2.078,0.789,4.23,1.605,6.482,2.427c8.268,3.022,17.115,4.492,27.047,4.492
	c11.781,0,23.715-2.074,35.256-4.081c4.305-0.749,8.756-1.523,13.129-2.178c3.227-0.481,6.506-0.727,9.744-0.727
	c14.277,0,27.111,4.681,40.7,9.635c2.344,0.855,4.712,1.719,7.121,2.571c18.007,6.372,31.017,10.975,42.682,26.471
	c6.57,8.731,11.952,18.496,15.562,28.238c3.182,8.594,1.58,17.987-4.18,24.513c-2.979,3.375-9.481,5.733-15.812,5.733
	c-4.632,0-8.522-1.224-10.952-3.442c-6.473-5.911-4.201-15.648-1.8-25.958c2.172-9.318,4.418-18.954-0.216-26.055l-1.631-2.5
	l-1.253,2.71c-0.456,0.987-0.946,2.192-1.479,3.506c-2.212,5.446-5.556,13.678-10.225,13.678c-1.221,0-2.577-0.545-4.033-1.623
	c-3.721-2.752-7.353-5.714-10.865-8.581c-7.342-5.99-14.936-12.185-23.906-16.934l-11.34-6l9.449,8.678
	c17.9,16.447,35.801,35.205,45.927,60.948c-21.407,0.272-38.933-13.019-55.835-25.914c-4.24-3.238-8.627-6.585-12.945-9.598
	c-16.396-11.447-35.986-13.023-54.711-13.023c-4.629,0-9.287,0.105-13.793,0.208c-4.518,0.104-8.783,0.199-13.035,0.199h-8.562
	l7.948,3.189c6.915,2.771,14.388,5.582,22.172,7.352c1.529,0.35,3.252,0.513,4.916,0.673c3.349,0.32,6.806,0.651,8.914,2.424
	c-0.917,0.769-4.776,3.041-20.271,6.189l-0.191,0.038c-34.682,7.063-75.637,14.361-116.419,14.936l-4.582,0.064l3.569,2.875
	c10.745,8.659,23.201,12.867,38.085,12.867c19.865,0,41.365-7.585,62.156-14.924c19.969-7.047,40.619-14.33,58.87-14.33
	c16.313,0,29.399,5.889,39.915,17.986c-9.262,1.35-19.37,6.612-29.179,11.718c-10.622,5.528-21.603,11.244-31.091,11.761
	l-6.581,0.356l5.972,2.793c3.594,1.676,7.279,2.492,11.27,2.492c9.457,0,18.824-4.746,27.883-9.336
	c8.731-4.422,17.756-8.995,26.457-8.995c1.039,0,2.07,0.065,3.068,0.194c3.686,0.473,7.201,2.729,10.602,4.912
	c1.997,1.281,4.063,2.606,6.184,3.593c6.901,3.204,14.582,5.639,22.828,7.233c6.535,1.266,12.987,1.454,19.227,1.639
	c3.168,0.092,6.439,0.187,9.688,0.423c6.244,0.453,10.664,2.49,13.137,6.055c4.71,6.797,2.126,18.238-0.229,26.253
	c-6.373,21.679-12.004,43.479-16.739,64.795c-3.35,15.068-8.271,32.508-13.482,50.971c-10.047,35.59-20.436,72.39-22.56,101.726
	l-0.129,1.772h90.957l-0.037-1.689c-0.385-17.471-4.465-33.908-8.783-51.311c-6.849-27.599-14.613-58.88-10.932-104.729
	c1.673-20.831,7.569-39.912,13.272-58.365c5.447-17.629,11.083-35.859,13.11-55.717c1.048-10.276,4.297-17.134,10.221-21.577
	c9.3-6.974,15.054-7.863,25.969-8.231c23.377-0.789,42.651-2.424,60.656-5.151c43.428-6.581,82.261-21.026,115.421-42.933
	l3.231-2.136l-3.778-0.856c-3.702-0.838-7.559-1.263-11.463-1.263c-18.307,0-36.122,9.301-51.84,17.507
	c-2.451,1.281-4.871,2.544-7.255,3.754c-15.782,8.011-34.468,16.2-53.402,16.2c-6.195,0-12.26-0.879-18.077-2.621
	c23.32-13.582,46.53-31.675,66.588-51.842l0.171,0.158l0.449-0.487l1.364-1.481l2.121-2.3l-0.051-0.046
	c1.461-1.521,2.904-3.051,4.326-4.594C486.453,196.625,497.754,195.779,509.72,194.883 M402.57,260.603l-3.123,1.764l3.369,1.23
	c7.222,2.633,14.849,3.968,22.671,3.968c19.63,0,38.768-8.37,54.898-16.559c2.396-1.217,4.826-2.484,7.288-3.77
	c16.134-8.422,32.816-17.131,50.311-17.131c2.26,0,4.502,0.152,6.7,0.454c-31.983,20.375-69.172,33.882-110.606,40.159
	c-17.874,2.707-37.026,4.334-60.271,5.117c-11.38,0.384-17.835,1.385-27.842,8.891c-6.717,5.037-10.379,12.627-11.528,23.886
	c-1.993,19.531-7.578,37.603-12.978,55.075c-5.757,18.625-11.708,37.884-13.411,59.076c-3.726,46.389,4.108,77.947,11.019,105.792
	c4.132,16.652,8.044,32.41,8.638,48.898h-84.002c2.383-28.713,12.508-64.582,22.307-99.295
	c5.223-18.508,10.158-35.989,13.527-51.151c4.721-21.244,10.333-42.972,16.684-64.579c2.547-8.666,5.296-21.108-0.225-29.069
	c-3.07-4.427-8.324-6.939-15.615-7.468c-3.316-0.24-6.627-0.337-9.828-0.433c-6.39-0.186-12.425-0.363-18.694-1.577
	c-7.984-1.544-15.408-3.895-22.064-6.987c-1.917-0.89-3.8-2.099-5.792-3.377c-3.707-2.379-7.543-4.841-11.965-5.409
	c-1.138-0.146-2.312-0.22-3.49-0.22c-9.489,0-18.874,4.754-27.951,9.353c-8.712,4.413-17.723,8.979-26.389,8.979
	c-1.098,0-2.168-0.071-3.22-0.213c8.165-2.097,16.78-6.581,25.176-10.951c10.63-5.533,21.618-11.254,30.985-11.652l3.235-0.138
	l-2.009-2.539c-11.506-14.545-26.053-21.614-44.474-21.614c-18.816,0-39.737,7.382-59.97,14.521
	c-20.528,7.244-41.76,14.734-61.057,14.734c-12.353,0-22.925-3.047-32.17-9.295c39.434-1.058,78.717-8.089,112.178-14.902
	l0.189-0.038c21.767-4.422,22.652-7.43,23.029-8.714c0.295-0.997-0.006-2.026-0.822-2.825c-2.875-2.808-7.295-3.231-11.193-3.605
	c-1.633-0.156-3.177-0.303-4.497-0.604c-4.665-1.061-9.239-2.516-13.653-4.114c1.5-0.029,2.993-0.065,4.471-0.097
	c4.488-0.103,9.128-0.208,13.719-0.208c18.187,0,37.172,1.505,52.818,12.426c4.26,2.976,8.426,6.153,12.834,9.518
	c17.958,13.702,36.589,27.912,60.305,26.503l2.229-0.132l-0.777-2.093c-7.847-21.158-20.729-37.691-34.764-52.013
	c2.951,2.26,5.811,4.592,8.627,6.892c3.541,2.889,7.205,5.877,10.989,8.678c2.038,1.505,4.056,2.269,5.999,2.269
	c6.896,0,10.588-9.094,13.285-15.737c1.732,5.613,0.055,12.804-1.702,20.343c-2.513,10.782-5.11,21.931,2.79,29.148
	c3.041,2.778,7.723,4.309,13.183,4.309c7.322,0,14.672-2.754,18.291-6.851c6.566-7.443,8.405-18.113,4.799-27.851
	c-3.719-10.039-9.259-20.095-16.019-29.078c-12.266-16.293-26.365-21.281-44.221-27.601c-2.398-0.849-4.758-1.708-7.092-2.559
	c-13.871-5.057-26.972-9.835-41.832-9.835c-3.4,0-6.844,0.258-10.232,0.765c-4.412,0.66-8.883,1.437-13.205,2.189
	c-11.404,1.981-23.194,4.031-34.691,4.031c-9.538,0-18.015-1.403-25.914-4.291c-2.236-0.818-4.376-1.629-6.443-2.414
	c-10.218-3.871-19.041-7.213-28.896-7.213c-5.999,0-12.12,1.242-18.72,3.795l-1.012,0.392c-11.11,4.304-21.646,8.387-32.908,8.949
	c12.994-2.441,24.678-5.631,36.485-15.336l2.567-2.107l-3.23-0.777c-4.185-1.005-8.193-1.451-12.07-1.88
	c-2.906-0.325-5.754-0.64-8.553-1.19c8.021,0.956,16.138,0.973,24.088,0.992c12.402,0.027,25.225,0.054,37.232,3.696l4.263,1.293
	l-2.389-3.761c-12.952-20.398-31.177-29.184-51.22-35.773c6.748,1.097,13.689,1.942,19.357,1.942c3.344,0,5.979-0.284,8.051-0.871
	l1.68-0.476l-4.887-14.227c7.625,9.511,23.375,34.986,29.234,44.463c1.998,3.233,3.441,5.569,4.068,6.519
	c5.35,8.121,13.088,11.905,24.352,11.905c3.445,0,7.336-0.347,12.238-1.093c11.959-1.817,23.635-5.126,33.641-8.085
	c1.486-0.438,2.967-0.893,4.449-1.347c3.562-1.089,7.244-2.218,10.895-3.106l1.329-0.324l-0.069-1.367
	c-0.233-4.575-0.596-8.744-1.107-12.744c-3.723-29.141-17.244-44.396-43.842-49.465c-24.943-4.752-43-12.002-54.525-32.444
	c2.52,1.333,5.129,2.708,7.788,2.708c2.544,0,4.67-1.274,6.321-3.784c2.516-3.825,2.258-8.45,1.516-12.873
	c1.258,2.815,2.643,6.29,3.808,9.213c3.911,9.813,7.956,19.961,12.021,23.166c3,2.363,6.376,3.613,9.767,3.613
	c4.334,0,8.499-1.977,11.725-5.564c3.961-4.402,5.856-10.476,5.202-16.665c-1.058-9.989-9.067-21.212-23.837-33.42
	c5.652,1.557,11.186,3.695,14.865,7.648l2.32,2.494l0.521-3.369c1.486-9.582,2.538-19.917,1.043-31.458
	c4.162,9.963,5.198,19.641,6.352,30.43c0.592,5.533,1.203,11.251,2.295,17.323c2.375,13.237,4.614,20.797,12.338,33.356
	c2.477,4.027,5.664,7.273,9.035,10.709c5.807,5.917,11.811,12.035,15.458,23.235l0.713,2.187l1.847-1.374
	c10.403-7.735,14.666-14.801,20.286-27.714c3.257-7.486-1.72-14.722-6.989-22.384c-1.81-2.63-3.679-5.351-5.256-8.141
	c-5.354-9.471-25.143-55.986-19.355-68.753c0.455-1.005,1.037-1.734,1.787-2.22c0.684,3.387,1.309,6.708,1.927,9.984
	c4.055,21.522,7.886,41.852,25.742,67.508l3.08,4.425l-0.069-5.391c-0.031-2.378-0.104-4.983-0.182-7.704
	c-0.242-8.556-0.514-18.251,0.411-25.507c0.182-1.421,1.954-8.586,3.11-11.92c1.41,2.963,1.596,9.684,1.693,13.239
	c0.044,1.648,0.084,3.071,0.185,4.127c1.283,13.359,2.495,27.171,3.603,41.052l0.207,2.623l2.273-1.327
	c11.182-6.531,16.579-17.371,21.799-27.854c1.553-3.119,3.135-6.297,4.878-9.37c-4.839,20.799-19.142,41.374-29.915,56.87
	c-6.972,10.032-12.461,16.027-20.758,24.219c-3.713,3.664-6.936,12.365-3.33,19.167c6.82,12.865,22.352,18.857,34.83,23.67
	l1.317,0.509c14.61,5.651,27.815,10.58,41.476,13.656l2.535,0.572l-0.559-2.541c-8.582-38.946-6.535-68.669,6.638-96.374
	c0.655-1.38,1.364-2.821,2.099-4.314c6.982-14.21,16.547-33.67,3.422-46.744c-0.601-0.597-1.448-1.42-2.496-2.438
	c-30.404-29.53-44.646-49.505-42.326-59.373c0.538-2.296,2.061-3.985,4.634-5.131c8.733,26.342,17.367,37.551,41.435,61.209
	l3.525,3.467l-0.731-4.888c-1.133-7.57-3.682-14.496-6.146-21.192c-2.213-6.015-4.343-11.8-5.495-17.934
	c1.465,2.726,2.93,5.357,4.37,7.943c6.321,11.353,12.29,22.075,15.699,36.209l1.132,4.697l1.982-4.408
	c5.662-12.596,7.985-23.171,10.231-33.397c1.737-7.907,3.398-15.473,6.534-23.296c-0.354,22.625-9.306,45.212-17.989,67.123
	c-2.316,5.848-4.507,11.372-6.543,16.913l-0.866,2.352c-9.436,25.627-21.177,57.521-10.316,84.695l1.225,3.066l1.721-2.818
	c11.025-18.073,28.496-29.85,45.39-41.238c11.071-7.463,22.52-15.181,32.238-24.663c18.638-18.182,24.593-41.856,30.351-64.751
	c2.353-9.354,4.76-18.922,8.036-28.174c-0.796,5.519-1.477,10.913-2.146,16.207c-1.221,9.646-2.481,19.621-4.4,30.048l-0.52,2.828
	l2.705-0.973c6.757-2.43,11.808-7.707,16.692-12.811c1.827-1.907,3.553-3.711,5.355-5.362c0.479-0.439,1.455-1.37,2.74-2.596
	c1.363-1.303,3.152-3.01,5.084-4.831c-4.628,6.363-9.07,12.909-13.393,19.275l-3.75,5.538
	c-10.907,16.135-22.187,32.817-36.211,46.509l-1.299,1.27l1.383,1.175c0.816,0.693,1.938,1.043,3.328,1.043
	c7.376,0,23.916-10.135,39.125-20.05c1.945-1.268,3.481-2.27,4.142-2.651c4.195-2.423,8.707-4.789,13.485-7.294
	c9.895-5.188,20.038-10.507,28.59-16.941c-8.569,12.132-17.781,19.402-29.662,28.778c-2.938,2.319-6.035,4.763-9.32,7.437
	l-4.287,3.489l5.498-0.563c13.083-1.336,21.531-4.012,31.315-7.108c2.016-0.637,4.06-1.284,6.195-1.935
	c-21.11,13.07-45.041,20.89-68.185,28.455c-18.297,5.98-37.217,12.165-54.752,20.918c-20.478,10.223-32.345,21.701-37.348,36.125
	c-7.909,22.813,3.211,47.872,12.265,64.735c5.159,9.606,12.552,14.275,22.604,14.275c7.464,0,15.486-2.476,25.236-6.193
	c24.174-9.218,46.422-22.842,63.106-33.682c22.614-14.692,39.078-27.762,51.811-41.128c11.916-12.507,14.352-23.855,8.686-40.47
	c-1.002-2.941-2.939-19.847-0.979-26.339c0.074,0.606,0.15,1.228,0.226,1.864c1.34,11.084,3.172,26.267,14.252,26.265
	c2.114-0.001,4.479-0.602,7.028-1.787c10.876-5.056,18.539-13.008,26.474-21.515c-3.231,6.104-13.18,20.277-41.547,53.121
	c-1.233,1.428-2.173,2.516-2.731,3.175l-2.551,3.009l3.935-0.292c24.275-1.806,39.65-4.867,58.577-16.852
	c-2.278,18.393-24.771,20.075-44.741,21.571c-13.183,0.986-24.567,1.837-29.523,7.218
	C457.479,223.174,429.999,245.122,402.57,260.603"/>
</svg>
